# xmcd CD database file
#
# Track frame offsets:
#	198
#	10935
#	24370
#	36590
#	49105
#	58328
#	68293
#	79250
#	89163
#	100335
#	109925
#	119898
#	131840
#	145720
#	159133
#	171880
#	184108
#	199350
#	210665
#	222230
#	238408
#	258440
#	269620
#	280405
#	291520
#
# Disc length: 4033 seconds
#
# Revision: 4
# Processed by: cddbd v1.5.2PL0 Copyright (c) Steve Scherf et al.
# Submitted via: CDex 1.50
#
DISCID=920fbf19
DTITLE=Verschiedene - 25 Country and Western Ballads Vol.1
DYEAR=1900
DGENRE=Country
TTITLE0=King Of The Road (Roger Miller)
TTITLE1=Rose Garden (Lynn Anderson)
TTITLE2=Wasted Days And Wasted Nights (Freddie Fender)
TTITLE3=Reuben James (Kenny Rogers)
TTITLE4=Rawhide (Frankie Laine)
TTITLE5=Six Days on the Road (Dave Duddley)
TTITLE6=Send Me The Pillow (Hank Locklin)
TTITLE7=Ballad Of A Teenage Queen (Johnny Cash)
TTITLE8=There's Always Something There To Remind Me (Don Williams)
TTITLE9=Snowbird (Lynn Anderson)
TTITLE10=Let's Pretend (Willie Nelson)
TTITLE11=Makin' Believe (Dolly Parton)
TTITLE12=Still Water Runs Cool (Frankie Laine)
TTITLE13=South Of The Border (Gene Autry)
TTITLE14=Any Old Arms Won't Do (Willie Nelson)
TTITLE15=You're the Nearest Thing To Heaven (Johnny Cash)
TTITLE16=The Night They Drove Old Dixie Down (Earl Thomas Conley)
TTITLE17=Hungry For Love (Patsy Cline)
TTITLE18=On The Sunny Side Of The Street (Frankie Laine)
TTITLE19=Queen Of The Silver Dollar (Billie Jo Spears)
TTITLE20=Mr. Bojangles (Frankie Laine)
TTITLE21=Throw It Away (Pat Boone)
TTITLE22=Dream Baby (Waylon Jennings)
TTITLE23=Tears Will Be The Chaser (Wanda Jackson)
TTITLE24=Last Thing On My Mind (Anne Murray)
EXTD=
EXTT0=
EXTT1=
EXTT2=
EXTT3=
EXTT4=
EXTT5=
EXTT6=
EXTT7=
EXTT8=
EXTT9=
EXTT10=
EXTT11=
EXTT12=
EXTT13=
EXTT14=
EXTT15=
EXTT16=
EXTT17=
EXTT18=
EXTT19=
EXTT20=
EXTT21=
EXTT22=
EXTT23=
EXTT24=
PLAYORDER=
